<svg xmlns="http://www.w3.org/2000/svg" width="44" height="44" viewBox="0 0 44 44">
  <g id="Group_24" data-name="Group 24" transform="translate(-86 -404)">
    <circle id="Ellipse_5" data-name="Ellipse 5" cx="22" cy="22" r="22" transform="translate(86 404)" opacity="0.53"/>
    <path id="Icon_awesome-arrow-left" data-name="Icon awesome-arrow-left" d="M14.086,24.937l-1.214,1.214a1.308,1.308,0,0,1-1.855,0L.382,15.522a1.308,1.308,0,0,1,0-1.855L11.017,3.033a1.308,1.308,0,0,1,1.855,0l1.214,1.214a1.314,1.314,0,0,1-.022,1.876L7.472,12.4H23.194a1.31,1.31,0,0,1,1.313,1.313v1.751a1.31,1.31,0,0,1-1.313,1.313H7.472l6.592,6.28A1.3,1.3,0,0,1,14.086,24.937Z" transform="translate(95.413 412.168)" opacity="0.47"/>
  </g>
</svg>
