<svg xmlns="http://www.w3.org/2000/svg" width="44" height="44" viewBox="0 0 44 44">
  <g id="Group_23" data-name="Group 23" transform="translate(-861 -414)">
    <path id="Icon_awesome-arrow-left" data-name="Icon awesome-arrow-left" d="M12.83,22.95l-1.106,1.106a1.191,1.191,0,0,1-1.689,0L.348,14.374a1.191,1.191,0,0,1,0-1.689L10.034,3a1.191,1.191,0,0,1,1.689,0L12.83,4.1a1.2,1.2,0,0,1-.02,1.709l-6,5.72H21.126a1.193,1.193,0,0,1,1.2,1.2v1.595a1.193,1.193,0,0,1-1.2,1.2H6.806l6,5.72A1.189,1.189,0,0,1,12.83,22.95Z" transform="translate(893.731 450.353) rotate(180)" fill="#bcbcbc"/>
    <circle id="Ellipse_4" data-name="Ellipse 4" cx="22" cy="22" r="22" transform="translate(861 414)" opacity="0.53"/>
  </g>
</svg>
